<svg width="2500" height="326" viewBox="0 0 2500 326" fill="none" xmlns="http://www.w3.org/2000/svg">
<path d="M2135.81 129.363V325.81H2198.6V194.845H2428.24V325.81H2491.03V129.363H2135.81ZM2191.42 65.674H2433.62C2467.71 59.3949 2491.93 28.8961 2499.1 0.191406H2125.94C2133.12 28.8961 2158.23 58.4978 2191.42 65.674ZM1944.74 325.81C1976.14 312.355 1993.18 289.032 2000.36 262.122H1717.8V1.08843H1654.11V325.81H1944.74V325.81ZM1183.17 64.777H1407.43C1441.51 54.9097 1469.32 28.8961 1476.5 1.08843H1121.28V193.051H1411.91V260.328H1184.07C1148.19 270.195 1117.69 294.415 1102.44 325.81H1474.7V129.363H1184.07L1183.17 64.777ZM630.606 65.674H872.802C906.889 59.3949 932.006 28.8961 938.285 0.191406H564.227C571.403 28.8961 596.519 58.4978 630.606 65.674ZM630.606 193.948H872.802C906.889 187.669 932.006 157.17 938.285 128.466H564.227C571.403 157.17 596.519 186.772 630.606 193.948ZM630.606 325.81H872.802C906.889 319.531 932.006 289.032 938.285 260.328H564.227C571.403 289.032 596.519 319.531 630.606 325.81Z" fill="white"/>
<path d="M0 1.08843C7.17618 29.7931 32.2928 58.4978 65.4826 65.674H167.743L173.125 67.468V324.913H236.814V67.468L242.196 65.674H344.456C378.543 56.7038 402.763 29.7931 409.939 1.08843V0.191406L0 1.08843Z" fill="white"/>
</svg>
