<svg width="2498" height="503" viewBox="0 0 2498 503" fill="none" xmlns="http://www.w3.org/2000/svg">
<path d="M0.189382 0.954263C2.24134 0.578215 3.92378 -0.00432318 5.59969 2.4193e-05C74.7577 0.267388 143.92 0.165217 213.069 1.13033C236.637 1.45639 258.291 9.77075 277.652 23.5519C321.845 54.9987 325.927 144.837 265.26 177.062C262.173 178.701 259.099 180.357 254.909 182.596C266.438 187.889 277.78 191.437 287.288 197.751C323.778 221.992 338.639 276.23 322.304 323.869C308.049 365.432 274.204 382.595 234.845 391.725C221.919 394.724 208.381 396.281 195.104 396.374C130.456 396.841 65.8043 396.583 0.182861 396.583C0.189382 264.857 0.189382 133.114 0.189382 0.954263V0.954263ZM69.3322 338.602C117.414 338.602 164.109 339.697 210.718 338.206C240.017 337.269 261.188 305.864 259.426 275.317C257.689 245.207 239.147 219.601 210.487 218.262C164.281 216.104 117.949 216.714 71.6667 216.232C70.9755 216.228 70.2734 217.245 69.33 217.977L69.3322 338.602V338.602ZM69.4931 164.687C112.469 164.687 153.915 166.252 195.176 164.168C225.562 162.631 242.712 138.336 241.575 105.124C240.569 75.7182 223.205 58.0331 191.946 57.2071C152.752 56.179 113.515 56.655 74.2926 56.5637C72.6971 56.5594 71.0994 57.4202 69.4931 57.8766V164.687V164.687ZM2212.56 110.336H2270.21V141.233C2276.63 136.284 2284.45 130.786 2291.66 124.594C2335.83 86.6845 2440.6 91.3362 2476.46 167.678C2507.31 233.38 2505.97 299.454 2464.32 360.621C2441.25 394.5 2405.53 406.608 2365.07 404.43C2329.91 402.532 2298.96 391.481 2274.6 358.932V502.998H2212.57C2212.56 371.994 2212.56 241.538 2212.56 110.336V110.336ZM2271.13 255.008C2273.72 269.396 2275.15 284.129 2279.17 298.113C2288.13 329.318 2315.42 352.394 2343.69 354.387C2381.5 357.054 2408.65 343.084 2422.32 309.561C2439.69 266.959 2439.08 223.994 2413.69 184.179C2383.74 137.212 2311.99 141.138 2286.61 190.339C2276.17 210.593 2271.05 231.911 2271.13 255.008V255.008ZM2171.72 355.6C2171.72 367.375 2172.14 379.332 2171.42 391.229C2171.25 394.166 2167.56 399.126 2165.18 399.33C2147.2 400.828 2128.92 403.449 2111.17 401.597C2095.52 399.963 2086.9 386.699 2082.08 371.361C2044.93 401.604 2002.33 408.145 1957.01 402.53C1919.12 397.837 1887.73 366.721 1885.03 332.172C1881.3 284.555 1899.59 253.55 1942.35 242.262C1972.34 234.35 2003.57 231.169 2034.23 225.824C2041.67 224.529 2049.2 223.472 2056.47 221.486C2070.42 217.677 2080.49 209.952 2081.51 194.067C2082.56 177.647 2076.2 164.852 2060.76 158.638C2034.43 148.041 2007.61 148.304 1981.68 160.438C1969.85 165.972 1962.82 177.11 1956.62 196.027H1895.86C1895.91 172.863 1903.97 153.393 1919.36 137.001C1939.69 115.347 1966.18 106.845 1994.71 103.861C2024.58 100.737 2054.27 100.877 2083.29 110.66C2122.31 123.818 2140.99 149.561 2140.94 190.774C2140.88 234.521 2140.92 278.269 2140.91 322.023C2140.9 353.072 2140.9 353.072 2171.72 355.6V355.6ZM2077.81 256.88C2058.66 260.197 2041.14 262.74 2023.84 266.357C2005.66 270.161 1987.12 273.456 1969.78 279.808C1952.78 286.038 1947 301.927 1947.56 318.991C1948.1 335.304 1959.24 344.445 1973.6 349.464C1998.23 358.069 2022.93 357.009 2046.42 346.021C2063.24 338.15 2076.05 325.281 2077.56 305.62C2078.8 289.244 2077.81 272.696 2077.81 256.88V256.88ZM514.26 102.07C609.557 100.95 665.44 170.804 659.545 265.918C657.499 298.978 648.616 329.874 626.855 356.002C603.405 384.154 573.232 398.978 537.06 402.999C506.854 406.367 477.503 404.389 449.515 391.685C407.834 372.764 384.058 339.743 374.057 295.745C367.199 265.59 367.499 235.56 375.187 205.731C392.149 139.929 442.82 102.326 514.26 102.07V102.07ZM431.306 253.854C433.807 267.816 435.114 282.125 439.042 295.674C449.038 330.168 476.264 352.944 507.391 354.452C545.868 356.317 572.789 340.132 587.087 304.292C601.049 269.305 601.071 233.498 585.763 198.932C563.085 147.722 501.3 134.627 461.515 172.691C438.829 194.393 432.973 223.231 431.306 253.854ZM844.889 102.074C930.841 101.939 989.324 159.86 990.411 246.009C990.871 282.386 984.946 317.074 963.592 347.547C933.025 391.172 888.873 406.436 838.042 404.121C819.313 403.267 799.898 399.106 782.443 392.255C741.46 376.168 717.024 344.493 706.164 302.097C696.632 264.868 697.693 227.874 709.818 191.487C728.414 135.671 779.426 102.172 844.889 102.074V102.074ZM927.274 246.118C925.887 238.477 924.52 223.714 920.4 209.759C909.93 174.267 882.257 152.719 847.391 151.204C814.555 149.774 785.021 169.135 772.285 203.042C757.285 242.979 758.389 282.76 780.991 319.971C804.536 358.737 857.911 367.231 892.916 338.308C919.624 316.239 926.159 285.768 927.274 246.118V246.118ZM1458.7 189.915C1439.09 189.915 1419.98 190.076 1400.9 189.711C1398.54 189.667 1394.88 187.311 1394.13 185.2C1383.39 155.386 1358.14 151.841 1332.02 151.691C1321.19 151.626 1309.67 154.262 1299.64 158.468C1278.21 167.459 1275.83 191.706 1295.91 203.32C1309.84 211.378 1326.2 215.706 1341.92 220.132C1364.16 226.394 1387.11 230.165 1409.21 236.841C1465.7 253.915 1487.77 310.553 1456.14 357.243C1440.97 379.635 1418.28 391.755 1392.27 398.035C1353.82 407.314 1315.53 407.995 1277.96 394.424C1237.75 379.898 1216.51 350.744 1213.38 306.616H1274.73C1292.17 352.148 1341.46 369.881 1387.64 346.614C1398.32 341.228 1405.45 333.57 1406.17 320.98C1406.93 307.525 1401.73 295.954 1389.65 291.45C1368.13 283.421 1345.64 277.915 1323.54 271.435C1305.23 266.066 1286.34 262.188 1268.68 255.197C1234.6 241.701 1219.79 218.482 1220 183.083C1220.18 152.208 1238.23 125.754 1270.23 114.151C1314.28 98.1811 1359.23 96.1944 1403.47 113.525C1433.38 125.241 1451.2 148.348 1458.61 179.457C1459.28 182.329 1458.7 185.511 1458.7 189.915ZM1125.61 109.539H1182.4V155.971H1126.76C1126.36 161.531 1125.86 165.422 1125.85 169.311C1125.79 216.178 1125.77 263.042 1125.87 309.9C1125.88 316.137 1126.36 322.39 1126.98 328.603C1128.2 340.995 1135.08 348.355 1147.56 349.033C1158.99 349.662 1170.49 349.168 1182.59 349.168V395.596C1156.66 402.015 1130.3 401.676 1104.79 395.992C1075.07 389.375 1063 368.931 1062.74 330.235C1062.38 277.571 1062.64 224.898 1062.62 172.23V156.747H1015.46V109.784H1061.99V23.7889H1125.62C1125.61 51.9186 1125.61 79.8417 1125.61 109.539ZM1656.67 397.385C1632.23 397.385 1609.1 398.146 1586.05 397.168C1563.71 396.22 1546.5 381.402 1541.62 359.287C1538.84 346.675 1537.36 333.809 1537.22 320.895C1536.73 271.346 1537.02 221.784 1537.02 172.228V156.558H1490.01V110.217H1536.32V23.8714H1600.07V108.817H1656.58V155.495H1602.36C1601.71 159.701 1600.86 162.609 1600.86 165.524C1600.82 215.973 1600.66 266.422 1600.98 316.867C1601.16 343.547 1608.14 349.968 1634.59 349.779C1641.65 349.733 1648.72 349.775 1656.67 349.775L1656.67 397.385V397.385ZM1762.71 110.497V159.351C1787.2 117.783 1821.08 96.1227 1871.12 103.507V163.776C1847.35 160.203 1824.42 159.566 1804.12 174.158C1777.48 193.306 1768.18 221.286 1767.51 252.128C1766.49 299.808 1767.25 347.531 1767.25 396.278H1704.8V110.493C1723.72 110.497 1742.24 110.497 1762.71 110.497V110.497Z" fill="white"/>
</svg>
