<svg width="967" height="288" viewBox="0 0 967 288" fill="none" xmlns="http://www.w3.org/2000/svg">
<g clip-path="url(#clip0)">
<path d="M657.171 17.1583H563.815L563.958 106.17L431.826 188.501L404.648 172.619L536.78 89.4564L477.821 51.8452L344.845 135.008L322.27 119.959L453.985 37.212L394.61 0.0288086L244.459 94.0211C223.228 39.8629 168.575 17.1702 101.742 17.1702H0V273.922H124.923C184.061 273.922 229.734 243.325 246.707 193.565L396.703 287.973L563.91 182.985L563.827 273.91H739.728V191.496H657.183V17.1583H657.171ZM105.833 196.953H93.3566V97.5278H105.833C139.91 97.5278 160.689 112.85 160.689 148.952C160.701 182.652 136.841 196.953 105.833 196.953ZM853.709 17.1583H760.352V273.922H936.254V191.508H853.709V17.1583Z" fill="black"/>
</g>
<defs>
<clipPath id="clip0">
<rect width="967" height="288" fill="white"/>
</clipPath>
</defs>
</svg>
