<svg width="9773" height="2932" viewBox="0 0 9773 2932" fill="none" xmlns="http://www.w3.org/2000/svg">
<g clip-path="url(#clip0)">
<path d="M1465.5 0C656.144 0 0 656.126 0 1465.48C0 2274.92 656.144 2931.02 1465.5 2931.02C2274.89 2931.02 2931 2274.93 2931 1465.48C2931 656.178 2274.93 0.0699463 1465.48 0.0699463L1465.5 0V0ZM2137.57 2113.65C2111.25 2156.82 2055 2170.35 2011.97 2144.04C1667.83 1933.71 1234.67 1886.2 724.55 2002.73C675.393 2014 626.393 1983.18 615.194 1934.04C603.941 1884.89 634.618 1835.89 683.898 1824.69C1242.15 1697.06 1721 1751.99 2107.28 1988.03C2150.33 2014.46 2163.98 2070.63 2137.55 2113.68L2137.57 2113.65V2113.65ZM2316.94 1714.67C2283.8 1768.44 2213.48 1785.31 2159.78 1752.29C1765.94 1510.2 1165.39 1440.07 699.456 1581.51C639.028 1599.76 575.206 1565.71 556.866 1505.38C538.666 1444.96 572.739 1381.25 633.061 1362.88C1165.29 1201.39 1826.93 1279.62 2279.3 1557.6C2333.03 1590.68 2350 1661.03 2316.93 1714.68L2316.94 1714.67ZM2332.34 1299.15C1859.95 1018.6 1080.74 992.808 629.787 1129.68C557.373 1151.64 480.793 1110.76 458.848 1038.34C436.903 965.893 477.748 889.365 550.215 867.35C1067.88 710.201 1928.44 740.563 2472.24 1063.39C2537.37 1102.04 2558.74 1186.16 2520.13 1251.21C2481.63 1316.35 2397.28 1337.82 2332.36 1299.15H2332.34V1299.15ZM3987.14 1352.91C3734.11 1292.57 3689.06 1250.22 3689.06 1161.23C3689.06 1077.16 3768.21 1020.58 3885.92 1020.58C4000.02 1020.58 4113.16 1063.54 4231.77 1151.99C4235.36 1154.67 4239.86 1155.73 4244.28 1155.03C4248.71 1154.37 4252.63 1151.94 4255.22 1148.28L4378.77 974.118C4383.85 966.943 4382.46 957.056 4375.62 951.578C4234.45 838.301 4075.48 783.228 3889.67 783.228C3616.46 783.228 3425.62 947.185 3425.62 1181.77C3425.62 1433.33 3590.24 1522.41 3874.72 1591.17C4116.85 1646.94 4157.71 1693.66 4157.71 1777.19C4157.71 1869.75 4075.08 1927.29 3942.1 1927.29C3794.4 1927.29 3673.93 1877.54 3539.16 1760.83C3535.82 1757.94 3531.23 1756.63 3527 1756.88C3522.54 1757.24 3518.46 1759.31 3515.62 1762.72L3377.09 1927.59C3371.28 1934.43 3372.02 1944.65 3378.74 1950.56C3535.54 2090.55 3728.39 2164.48 3936.5 2164.48C4230.9 2164.48 4421.14 2003.63 4421.14 1754.65C4421.67 1544.48 4295.84 1428.1 3987.67 1353.13L3987.14 1352.91V1352.91ZM5087.19 1103.35C4959.58 1103.35 4854.91 1153.62 4768.6 1256.6V1140.68C4768.6 1131.53 4761.18 1124.07 4752.05 1124.07H4525.47C4516.32 1124.07 4508.92 1131.53 4508.92 1140.68V2428.72C4508.92 2437.87 4516.32 2445.32 4525.47 2445.32H4752.05C4761.18 2445.32 4768.6 2437.87 4768.6 2428.72V2022.14C4854.93 2119.02 4959.61 2166.36 5087.19 2166.36C5324.3 2166.36 5564.33 1983.83 5564.33 1634.92C5564.68 1285.91 5324.58 1103.34 5087.45 1103.34L5087.19 1103.35ZM5300.86 1634.92C5300.86 1812.59 5191.42 1936.58 5034.71 1936.58C4879.78 1936.58 4762.91 1806.96 4762.91 1634.92C4762.91 1462.89 4879.78 1333.25 5034.71 1333.25C5188.88 1333.23 5300.88 1460.07 5300.88 1634.9L5300.86 1634.92V1634.92ZM6179.54 1103.35C5874.18 1103.35 5634.96 1338.48 5634.96 1638.71C5634.96 1935.67 5872.54 2168.33 6175.79 2168.33C6482.23 2168.33 6722.19 1933.99 6722.19 1634.92C6722.19 1336.87 6483.84 1103.39 6179.52 1103.39L6179.54 1103.35V1103.35ZM6179.54 1938.35C6017.12 1938.35 5894.67 1807.85 5894.67 1634.83C5894.67 1461.07 6012.89 1334.98 6175.79 1334.98C6339.26 1334.98 6462.53 1465.48 6462.53 1638.63C6462.53 1812.35 6343.53 1938.35 6179.55 1938.35H6179.54V1938.35ZM7374.26 1124.08H7124.94V869.171C7124.94 860.036 7117.55 852.581 7108.4 852.581H6881.86C6872.69 852.581 6865.26 860.036 6865.26 869.171V1124.08H6756.32C6747.2 1124.08 6739.82 1131.53 6739.82 1140.68V1335.41C6739.82 1344.54 6747.2 1352.01 6756.32 1352.01H6865.26V1855.85C6865.26 2059.47 6966.6 2162.7 7166.47 2162.7C7247.74 2162.7 7315.16 2145.92 7378.71 2109.88C7383.87 2107 7387.07 2101.43 7387.07 2095.52V1910.09C7387.07 1904.36 7384.09 1898.96 7379.19 1895.97C7374.26 1892.87 7368.12 1892.71 7363.06 1895.21C7319.41 1917.17 7277.22 1927.31 7230.06 1927.31C7157.37 1927.31 7124.94 1894.3 7124.94 1820.33V1352.1H7374.26C7383.41 1352.1 7390.78 1344.65 7390.78 1335.49V1140.79C7391.13 1131.64 7383.78 1124.18 7374.51 1124.18L7374.26 1124.08V1124.08ZM8242.96 1125.07V1093.76C8242.96 1001.66 8278.27 960.59 8357.48 960.59C8404.71 960.59 8442.65 969.97 8485.14 984.145C8490.38 985.791 8495.83 984.968 8500.09 981.835C8504.46 978.702 8506.93 973.68 8506.93 968.36V777.435C8506.93 770.137 8502.24 763.68 8495.2 761.527C8450.32 748.174 8392.88 734.472 8306.89 734.472C8097.62 734.472 7987 852.317 7987 1075.14V1123.09H7878.15C7869.02 1123.09 7861.53 1130.55 7861.53 1139.68V1335.4C7861.53 1344.54 7869.02 1352.01 7878.15 1352.01H7987V2129.17C7987 2138.32 7994.39 2145.77 8003.53 2145.77H8230.1C8239.25 2145.77 8246.71 2138.32 8246.71 2129.17V1352.06H8458.25L8782.29 2129.03C8745.51 2210.67 8709.33 2226.91 8659.95 2226.91C8620.03 2226.91 8578 2214.99 8535.02 2191.47C8530.97 2189.25 8526.18 2188.88 8521.82 2190.23C8517.5 2191.75 8513.86 2194.97 8512.02 2199.17L8435.23 2367.64C8431.57 2375.6 8434.71 2384.95 8442.37 2389.08C8522.54 2432.49 8594.9 2451.03 8684.35 2451.03C8851.64 2451.03 8944.11 2373.1 9025.63 2163.45L9418.7 1147.75C9420.67 1142.64 9420.08 1136.87 9416.95 1132.33C9413.83 1127.84 9408.81 1125.12 9403.31 1125.12H9167.45C9160.38 1125.12 9154.06 1129.62 9151.75 1136.25L8910.13 1826.42L8645.48 1135.8C8643.06 1129.38 8636.87 1125.12 8630.01 1125.12H8242.91L8242.96 1125.07V1125.07ZM7739.31 1124.08H7512.74C7503.58 1124.08 7496.13 1131.53 7496.13 1140.68V2129.17C7496.13 2138.32 7503.58 2145.77 7512.74 2145.77H7739.31C7748.44 2145.77 7755.92 2138.32 7755.92 2129.17V1140.75C7755.92 1138.57 7755.49 1136.4 7754.66 1134.39C7753.83 1132.37 7752.6 1130.53 7751.06 1128.99C7749.51 1127.45 7747.68 1126.23 7745.66 1125.39C7743.64 1124.56 7741.47 1124.14 7739.29 1124.15L7739.31 1124.08ZM7627.31 673.994C7537.55 673.994 7464.72 746.653 7464.72 836.411C7464.72 926.221 7537.57 998.969 7627.31 998.969C7717.03 998.969 7789.8 926.221 7789.8 836.411C7789.8 746.671 7717 673.994 7627.4 673.994H7627.31V673.994ZM9612.16 1441.89C9522.49 1441.89 9452.72 1369.88 9452.72 1282.43C9452.72 1194.98 9523.4 1122.15 9613 1122.15C9702.67 1122.15 9772.44 1194.14 9772.44 1281.52C9772.44 1368.97 9701.74 1441.89 9612.14 1441.89H9612.16V1441.89ZM9613.03 1138C9531.36 1138 9469.57 1202.93 9469.57 1282.43C9469.57 1361.9 9530.92 1425.95 9612.21 1425.95C9693.86 1425.95 9755.73 1361.08 9755.73 1281.52C9755.73 1202.05 9694.3 1138 9613.1 1138H9613.03V1138ZM9648.38 1297.92L9693.48 1361.06H9655.46L9614.85 1303.14H9579.94V1361.06H9548.11V1193.69H9622.75C9661.63 1193.69 9687.2 1213.59 9687.2 1247.08C9687.38 1274.52 9671.45 1291.29 9648.53 1297.92H9648.38V1297.92ZM9621.43 1222.41H9579.92V1275.35H9621.43C9642.15 1275.35 9654.52 1265.21 9654.52 1248.85C9654.52 1231.63 9642.1 1222.41 9621.45 1222.41H9621.43V1222.41Z" fill="white"/>
</g>
<defs>
<clipPath id="clip0">
<rect width="9772.44" height="2931.02" fill="white"/>
</clipPath>
</defs>
</svg>
