<?xml version="1.0" encoding="utf-8"?>
<!-- Generator: Adobe Illustrator 25.2.1, SVG Export Plug-In . SVG Version: 6.00 Build 0)  -->
<svg version="1.1" id="Layer_1" xmlns="http://www.w3.org/2000/svg" xmlns:xlink="http://www.w3.org/1999/xlink" x="0px" y="0px"
	 viewBox="0 0 162.04 40.85" style="enable-background:new 0 0 162.04 40.85;" xml:space="preserve">
<style type="text/css">
	.st0{fill:#DEBA13;}
	.st1{fill:#FFFFFF;}
</style>
<g id="DEBA13">
	<rect x="26.52" y="32.07" class="st0" width="1.43" height="1.43"/>
	<rect x="29.39" y="32.07" class="st0" width="1.43" height="1.43"/>
	<rect x="23.66" y="32.07" class="st0" width="1.43" height="1.43"/>
	<path class="st0" d="M48.73,14.88h-5.02V5.57H9.34v22.92H7.18v3.88l3.29,3.29h33.54l3.29-3.29v-3.88h-3.58v-7.88h5.02
		c1.58,0,2.87-1.28,2.87-2.87C51.61,16.16,50.31,14.88,48.73,14.88z M45.87,31.77l-2.45,2.45H11.07l-2.45-2.45v-1.85h10.74v1.43
		h15.76v-1.43h10.74L45.87,31.77L45.87,31.77z M42.29,28.49h-8.59v1.43H20.8v-1.43H10.77V7h31.52v7.88h-2.15v0.72h-1.71
		c-0.96-3.7-4.32-6.44-8.31-6.44c-4.74,0-8.59,3.86-8.59,8.59s3.86,8.59,8.59,8.59c3.99,0,7.35-2.74,8.31-6.44h1.71v0.72h2.15V28.49
		z M40.13,18.46h-1.47c0.02-0.24,0.03-0.47,0.03-0.72c0-0.24-0.02-0.48-0.03-0.72h1.47V18.46z M37.27,17.74
		c0,3.95-3.22,7.16-7.16,7.16c-3.94,0-7.16-3.22-7.16-7.16s3.22-7.16,7.16-7.16S37.27,13.79,37.27,17.74z M48.73,19.18h-7.16v-2.87
		h7.16c0.79,0,1.43,0.64,1.43,1.43S49.52,19.18,48.73,19.18z"/>
	<rect x="12.91" y="9.87" class="st0" width="10.74" height="1.43"/>
	<rect x="12.91" y="14.88" class="st0" width="7.16" height="1.43"/>
	<rect x="12.91" y="19.89" class="st0" width="7.16" height="1.43"/>
	<rect x="12.91" y="24.91" class="st0" width="10.74" height="1.43"/>
	<path class="st0" d="M30.53,16.72v-2.19c0.36,0.16,0.59,0.45,0.67,0.9l1.42-0.18c-0.1-0.56-0.47-1.79-2.09-1.95v-0.55h-0.81v0.55
		c-0.65,0.06-2.12,0.45-2.12,2.26c0,1.77,1.39,2.28,2.12,2.49v2.35c-0.2-0.1-0.73-0.45-0.88-1.24l-1.46,0.16
		c0.3,2.02,1.7,2.35,2.35,2.43v1.02h0.81v-1.05c2.07-0.36,2.32-1.89,2.32-2.56C32.84,18.55,32.76,17.18,30.53,16.72z M29.71,16.45
		c-0.24-0.1-0.73-0.4-0.73-0.96c0-0.59,0.5-0.9,0.73-0.98V16.45z M30.53,20.47v-2.19c0.87,0.26,0.94,0.81,0.94,1.07
		C31.47,19.63,31.38,20.21,30.53,20.47z"/>
</g>
<path class="st1" d="M60.75,15.67v6.29H57.8V5.52h4.68c0.25,0,0.51,0,0.78,0.02c1.88,0,3.31,1.69,3.33,3.53v0.82
	c0,0.8-0.02,1.63-0.02,2.43c-0.02,1.29-0.71,2.41-1.65,3l2.16,6.64h-3.02l-1.98-6.29H60.75L60.75,15.67z M62.4,7.91h-1.65v5.57h1.84
	c0.59,0,0.84-0.47,0.9-0.98c0.04-0.59,0.08-1.2,0.08-1.78c0-0.61-0.04-1.2-0.08-1.78C63.42,8.24,63.07,7.91,62.4,7.91L62.4,7.91z
	 M74.75,14.48h-3.14v5.25h4.74v2.23h-7.7V5.52h7.7v2.23h-4.74v4.53h3.14V14.48z M77.9,18.53V8.95c0.02-2.14,1.65-3.61,3.33-3.63h2.1
	c1.69,0,3.31,1.51,3.31,3.63v2.43h-3V9.75c-0.02-1.92-0.25-2-1.8-2c-0.49,0-1,0.18-1,1.06v9.86c0,0.92,0.73,1.08,1.33,1.08
	c1.39,0,1.45-1.45,1.47-2.51v-0.8h3v2.12c0,1.84-1.39,3.61-3.31,3.61h-2.1C79.55,22.16,77.92,20.71,77.9,18.53L77.9,18.53z
	 M88.35,5.52h3v16.44h-3V5.52L88.35,5.52z M102.34,12.56c-0.02,2.08-1.69,3.33-3.29,3.33h-2.49v6.07H93.6V5.52h4.37
	c0.37,0,0.74,0.02,1.1,0.02c1.65,0,3.27,1.43,3.27,3.57L102.34,12.56L102.34,12.56z M98.42,13.67c0.47,0,0.86-0.24,0.94-0.98
	c0-1.23,0.02-2.51,0.02-3.61c0-0.94-0.51-1.12-0.96-1.18h-1.86v5.78h1.63C98.2,13.69,98.42,13.67,98.42,13.67L98.42,13.67z
	 M109.94,14.48h-3.14v5.25h4.74v2.23h-7.7V5.52h7.7v2.23h-4.74v4.53h3.14V14.48z M116.43,18.53V8.95c0.02-2.14,1.65-3.61,3.33-3.63
	h2.1c1.69,0,3.31,1.51,3.31,3.63v2.43h-3V9.75c-0.02-1.92-0.25-2-1.8-2c-0.49,0-1,0.18-1,1.06v9.86c0,0.92,0.73,1.08,1.33,1.08
	c1.39,0,1.45-1.45,1.47-2.51v-0.8h3v2.12c0,1.84-1.39,3.61-3.31,3.61h-2.1C118.07,22.16,116.45,20.71,116.43,18.53L116.43,18.53z
	 M135.42,8.95v9.58c0,2.16-1.61,3.63-3.31,3.63h-2.1c-1.7,0-3.31-1.45-3.31-3.63V8.95c0-2,1.41-3.63,3.45-3.63h1.96
	C133.79,5.32,135.42,6.81,135.42,8.95z M129.66,9.52c-0.02,0.14-0.02,0.57-0.02,0.74v7.35c0,0.37,0.02,0.65,0.06,1.12
	c0.02,0.8,0.55,1,1.23,1c0.76,0,1.39-0.02,1.51-1c0.02-0.49,0.04-0.98,0.04-1.47V9.52c0-0.24-0.02-0.49-0.02-0.73
	c-0.02-0.61-0.45-0.98-0.94-1.04c-0.08-0.02-0.27-0.02-0.41-0.02C129.68,7.74,129.66,8.38,129.66,9.52L129.66,9.52z M136.95,8.95
	c0-2.14,1.61-3.61,3.29-3.63h1.74c1.72,0,3.21,1.49,3.21,3.64v2.18h-2.82V9.83c0-1.08-0.16-2.08-1.25-2.08
	c-0.02,0-0.18,0.02-0.2,0.02c-0.53,0.04-1.02,0.49-1.02,1.29c0,3.92,5.76,4.17,5.76,9.47c0,2.16-1.61,3.63-3.31,3.63h-2.12
	c-1.7,0-3.31-1.47-3.31-3.63v-2.19h2.96v1.04c-0.02,1.18,0.18,2.35,1.43,2.35c0.84,0,1.39-0.43,1.39-1.45
	C142.71,14.46,136.95,14.26,136.95,8.95L136.95,8.95z M146.67,5.52h9.72v2.23h-3.37v14.21h-2.98V7.75h-3.37L146.67,5.52L146.67,5.52
	z"/>
<path class="st0" d="M62.25,35.75c-2.56,0-4.45-1.74-4.45-4.48s1.89-4.47,4.45-4.47c1.94,0,3.5,0.99,4.12,2.65l-1.69,0.61
	c-0.39-1.01-1.31-1.6-2.43-1.6c-1.5,0-2.65,1.05-2.65,2.81s1.15,2.81,2.65,2.81c1.12,0,2.04-0.59,2.43-1.6l1.69,0.61
	C65.74,34.75,64.19,35.75,62.25,35.75L62.25,35.75z M75.64,35.63L75,33.84h-3.66l-0.63,1.8h-1.85l3.21-8.71h2.21l3.21,8.71H75.64
	L75.64,35.63z M71.88,32.32h2.6l-1.3-3.69L71.88,32.32z M82.56,34.03h2.73v1.6h-4.54v-8.71h1.81V34.03L82.56,34.03z M92.49,35.75
	c-2.56,0-4.45-1.74-4.45-4.48s1.89-4.47,4.45-4.47c1.94,0,3.5,0.99,4.12,2.65l-1.69,0.61c-0.39-1.01-1.31-1.6-2.43-1.6
	c-1.5,0-2.65,1.05-2.65,2.81s1.15,2.81,2.65,2.81c1.12,0,2.04-0.59,2.43-1.6l1.69,0.61C95.99,34.75,94.43,35.75,92.49,35.75
	L92.49,35.75z M103.28,35.75c-1.91,0-3.4-0.98-3.4-3.17v-5.66h1.81v5.41c0,1.33,0.71,1.82,1.6,1.82c0.9,0,1.61-0.5,1.61-1.82v-5.41
	h1.81v5.66C106.69,34.78,105.19,35.75,103.28,35.75z M112.54,34.03h2.73v1.6h-4.54v-8.71h1.81V34.03L112.54,34.03z M124.44,35.63
	l-0.63-1.8h-3.66l-0.63,1.8h-1.85l3.21-8.71h2.21l3.21,8.71H124.44L124.44,35.63z M120.67,32.32h2.6l-1.3-3.69L120.67,32.32z
	 M134.61,26.92v1.59h-2.07v7.12h-1.79v-7.12h-2.08v-1.59L134.61,26.92L134.61,26.92z M141.79,35.75c-2.56,0-4.45-1.75-4.45-4.48
	c0-2.74,1.89-4.47,4.45-4.47c2.56,0,4.45,1.74,4.45,4.47C146.24,34,144.35,35.75,141.79,35.75z M141.79,34.09
	c1.5,0,2.65-1.05,2.65-2.82c0-1.76-1.15-2.81-2.65-2.81c-1.5,0-2.65,1.05-2.65,2.81C139.14,33.04,140.29,34.09,141.79,34.09z
	 M154.46,35.63l-2.27-3.83h-0.52v3.83h-1.81v-8.71h3.16c1.97,0,2.8,1.16,2.8,2.6c0,1.17-0.66,1.93-1.84,2.18l2.62,3.92L154.46,35.63
	L154.46,35.63z M151.67,28.42v2.08h1.07c0.96,0,1.36-0.41,1.36-1.04c0-0.62-0.39-1.04-1.36-1.04L151.67,28.42L151.67,28.42z"/>
</svg>
